<svg width="14" height="9" viewBox="0 0 14 9" fill="none" xmlns="http://www.w3.org/2000/svg">
<path d="M13.7101 1.21C13.6171 1.11627 13.5065 1.04188 13.3846 0.991107C13.2628 0.940338 13.1321 0.9142 13.0001 0.9142C12.868 0.9142 12.7373 0.940338 12.6155 0.991107C12.4936 1.04188 12.383 1.11627 12.2901 1.21L7.71006 5.79C7.6171 5.88373 7.5065 5.95812 7.38464 6.00889C7.26278 6.05966 7.13207 6.0858 7.00006 6.0858C6.86805 6.0858 6.73734 6.05966 6.61548 6.00889C6.49362 5.95812 6.38302 5.88373 6.29006 5.79L1.71006 1.21C1.6171 1.11627 1.5065 1.04188 1.38464 0.991107C1.26278 0.940338 1.13207 0.9142 1.00006 0.9142C0.868048 0.9142 0.737343 0.940338 0.615483 0.991107C0.493624 1.04188 0.383023 1.11627 0.29006 1.21C0.103809 1.39736 -0.000732422 1.65081 -0.000732422 1.915C-0.000732422 2.17918 0.103809 2.43264 0.29006 2.62L4.88006 7.21C5.44256 7.7718 6.20506 8.08736 7.00006 8.08736C7.79506 8.08736 8.55756 7.7718 9.12006 7.21L13.7101 2.62C13.8963 2.43264 14.0009 2.17918 14.0009 1.915C14.0009 1.65081 13.8963 1.39736 13.7101 1.21Z" fill="white"/>
</svg>
