<svg width="24" height="24" viewBox="0 0 24 24" fill="none" xmlns="http://www.w3.org/2000/svg">
<g clip-path="url(#clip0_32_34)">
<path d="M18 18.8571H21.4286C21.8833 18.8571 22.3193 18.6765 22.6408 18.355C22.9623 18.0336 23.1429 17.5975 23.1429 17.1429V9.42857C23.1429 8.97392 22.9623 8.53788 22.6408 8.21639C22.3193 7.8949 21.8833 7.71429 21.4286 7.71429H2.57146C2.11681 7.71429 1.68077 7.8949 1.35928 8.21639C1.03779 8.53788 0.857178 8.97392 0.857178 9.42857V17.1429C0.857178 17.5975 1.03779 18.0336 1.35928 18.355C1.68077 18.6765 2.11681 18.8571 2.57146 18.8571H6.00003" stroke="white" stroke-width="2" stroke-linecap="round" stroke-linejoin="round"/>
<path d="M6 16.2857V22.2857C6 22.513 6.09031 22.7311 6.25105 22.8918C6.4118 23.0526 6.62981 23.1429 6.85714 23.1429H17.1429C17.3702 23.1429 17.5882 23.0526 17.7489 22.8918C17.9097 22.7311 18 22.513 18 22.2857V16.2857H6Z" stroke="white" stroke-width="2" stroke-linecap="round" stroke-linejoin="round"/>
<path d="M18 7.71429V1.71429C18 1.48696 17.9097 1.26894 17.7489 1.1082C17.5882 0.947453 17.3702 0.857147 17.1429 0.857147H6.85714C6.62981 0.857147 6.4118 0.947453 6.25105 1.1082C6.09031 1.26894 6 1.48696 6 1.71429V7.71429" stroke="white" stroke-width="2" stroke-linecap="round" stroke-linejoin="round"/>
<path d="M18.8571 12H17.1428" stroke="white" stroke-width="2" stroke-linecap="round" stroke-linejoin="round"/>
</g>
<defs>
<clipPath id="clip0_32_34">
<rect width="24" height="24" fill="white"/>
</clipPath>
</defs>
</svg>
