<svg width="160" height="59" viewBox="0 0 160 59" fill="none" xmlns="http://www.w3.org/2000/svg">
<path fill-rule="evenodd" clip-rule="evenodd" d="M53.6298 5.74732C56.2393 5.74732 58.3743 7.88565 58.3743 10.4992C58.3743 25.2626 58.3743 40.0259 58.3743 54.7893H14.1541C11.5446 54.7893 9.40967 52.651 9.40967 50.0373C9.40967 35.274 9.40967 20.5107 9.40967 5.74732H53.6298Z" fill="white"/>
<path d="M32.5674 13.4911C35.152 13.4911 38.2326 13.3574 40.7131 13.8854C44.786 14.751 47.5475 18.3648 47.5475 22.5334C47.5475 27.5167 44.161 30.0515 39.5491 30.427C37.3524 30.6239 34.8071 30.5026 32.5586 30.5026V29.7477C37.7591 29.7477 41.618 28.2247 41.618 22.2317C41.618 18.2776 39.4729 14.7488 35.3533 14.2962C34.461 14.2172 33.4676 14.2461 32.5674 14.2461V13.4911Z" fill="#D7B56E"/>
<path fill-rule="evenodd" clip-rule="evenodd" d="M30.7138 37.2006V39.3438C30.7138 41.2001 30.6725 43.6464 32.0372 45.0815C33.6938 46.8033 35.8555 46.426 38.0122 46.4821C40.5039 46.4821 42.9588 46.1713 44.5989 44.0734C45.6758 42.6772 46.1018 41.0502 46.4473 39.3492L46.9063 39.3875L46.6384 47.061C37.8378 47.061 29.037 47.0609 20.2363 47.0609V46.5072C21.7119 46.4293 23.0003 46.1867 24.0637 45.0815C25.4594 43.6615 25.387 41.2049 25.387 39.3438V21.2084C25.387 19.799 25.3284 18.7083 25.2027 17.9451C24.7458 15.1614 22.9974 14.2109 20.4042 14.0447H20.2363V13.4909H27.2228C29.0506 13.5127 30.5903 14.958 30.7138 16.8024C30.7138 23.6018 30.7138 30.4011 30.7138 37.2006Z" fill="#2B2B2A"/>
<path d="M151.422 31.6208L151.578 34.768L151.363 34.7777C151.283 34.2419 151.147 33.8003 150.955 33.4492C150.764 33.1019 150.488 32.7899 150.128 32.5237C149.83 32.3027 149.476 32.144 149.071 32.0529C148.666 31.9586 148.124 31.9133 147.453 31.9133H145.928H145.274H144.808C145.093 31.9736 145.274 32.3241 145.274 32.6432V37.6424H145.848C146.428 37.6424 146.863 37.6035 147.155 37.5287C147.45 37.4507 147.687 37.3175 147.871 37.1194C148.05 36.9375 148.183 36.72 148.27 36.4699C148.354 36.2197 148.426 35.8494 148.484 35.3623L148.698 35.372L148.659 40.4679H148.445C148.387 39.9776 148.303 39.5847 148.192 39.2858C148.082 38.987 147.926 38.7336 147.729 38.5258C147.537 38.321 147.291 38.1717 146.983 38.0777C146.678 37.9834 146.289 37.9345 145.819 37.9345H145.274V40.114C145.274 40.9811 145.297 41.6144 145.342 42.0107C145.384 42.407 145.472 42.738 145.598 43.0045C145.815 43.4592 146.146 43.7939 146.59 44.0083C147.035 44.2194 147.622 44.3263 148.348 44.3263C149.107 44.3263 149.742 44.2289 150.255 44.0372C150.767 43.8424 151.182 43.5438 151.506 43.1377C151.733 42.8646 151.918 42.5531 152.061 42.2055C152.2 41.8582 152.333 41.3969 152.453 40.8252L152.667 40.8349L152.551 44.6186H141.208V44.4043C141.571 44.3848 141.866 44.3329 142.089 44.2516C142.317 44.1705 142.518 44.0372 142.696 43.8523C142.894 43.6478 143.03 43.3878 143.101 43.0761C143.176 42.7609 143.211 42.2803 143.211 41.6307V34.6089C143.211 33.959 143.176 33.4785 143.101 33.1635C143.03 32.8486 142.894 32.5921 142.696 32.3873C142.524 32.2022 142.326 32.0689 142.099 31.9878C141.875 31.9067 141.577 31.8546 141.208 31.8351V31.6208H151.422ZM114.264 33.9651V41.6239C114.264 42.2801 114.3 42.7606 114.374 43.0724C114.445 43.3842 114.582 43.6409 114.776 43.8455C114.955 44.0304 115.156 44.1636 115.38 44.2447C115.606 44.3261 115.898 44.378 116.258 44.3975V44.6118H111.881V44.3975C112.24 44.378 112.532 44.3261 112.759 44.2447C112.983 44.1636 113.184 44.0304 113.363 43.8455C113.557 43.6409 113.693 43.381 113.765 43.0693C113.839 42.7541 113.875 42.2735 113.875 41.6239V34.5921C113.875 34.1431 113.857 33.775 113.821 33.4864L114.264 33.9651ZM112.769 31.981C112.542 31.8999 112.247 31.8477 111.881 31.8283V31.6139H115.538L123.253 41.4808V34.6021C123.253 33.9462 123.217 33.4653 123.142 33.1536C123.071 32.8418 122.935 32.5853 122.74 32.3805C122.562 32.1953 122.361 32.0621 122.137 31.981C121.91 31.8999 121.618 31.8477 121.258 31.8283V31.6139H125.636V31.8283C125.004 31.8283 124.511 32.0136 124.154 32.3805C123.96 32.5853 123.823 32.8418 123.752 33.1567C123.677 33.4717 123.642 33.9493 123.642 34.5921V44.6118H123.214L114.264 33.3352C113.932 32.984 113.29 32.1698 112.769 31.981ZM69.605 44.6186V44.4043C70.2439 44.4043 70.7368 44.2226 71.0873 43.8621C71.2816 43.6572 71.418 43.3974 71.4895 43.0824C71.5639 42.7675 71.5994 42.2869 71.5994 41.6373V34.6089C71.5994 33.9364 71.5605 33.4398 71.4795 33.1182C71.4017 32.7965 71.2558 32.5334 71.0386 32.3322C70.8601 32.1666 70.6624 32.0463 70.4452 31.9683C70.2278 31.8938 69.9457 31.8482 69.605 31.8351V31.6208H72.4602C73.4837 31.794 73.6685 32.9174 73.6685 34.1589C73.664 34.2988 73.6619 34.4486 73.6619 34.6089V40.1042C73.6619 40.9487 73.6845 41.5788 73.7266 41.9912C73.7721 42.4035 73.8596 42.7414 73.9861 43.0013C74.2066 43.4592 74.5342 43.7939 74.972 44.0083C75.4097 44.2194 75.9871 44.3263 76.7101 44.3263C77.4622 44.3263 78.0977 44.2255 78.6135 44.0277C79.1291 43.8263 79.5539 43.5177 79.8812 43.0988C80.1019 42.8131 80.2866 42.4881 80.4295 42.1242C80.5688 41.7637 80.7018 41.2865 80.8217 40.6954L81.0554 40.7149L80.919 44.6186H69.605ZM81.908 38.201C81.908 37.1358 82.1352 36.1452 82.5924 35.2356C83.0496 34.323 83.7144 33.5306 84.5865 32.8518C85.2417 32.3484 85.9452 31.9652 86.6976 31.6955C87.2952 31.4825 87.8952 31.3524 88.4986 31.3074V31.5952C87.9867 31.6323 87.5321 31.7453 87.1386 31.9359C86.6456 32.1698 86.1915 32.5497 85.7736 33.0793C85.274 33.706 84.8849 34.4788 84.6125 35.395C84.3401 36.3074 84.204 37.2917 84.204 38.3373C84.204 40.1822 84.7033 41.7347 85.7054 42.9979C86.1561 43.5632 86.6327 43.9756 87.1386 44.2324C87.5411 44.4377 87.9956 44.5618 88.4986 44.6031V44.9238C87.6021 44.8854 86.7426 44.6803 85.9194 44.31C84.9982 43.8977 84.2071 43.3162 83.5425 42.5597C83.0169 41.9685 82.6118 41.2994 82.3297 40.5461C82.0476 39.7956 81.908 39.013 81.908 38.201ZM89.2873 31.2966C90.1533 31.3371 90.9938 31.5494 91.8112 31.9328C92.7225 32.3615 93.5204 32.9653 94.2042 33.745C95.32 35.015 95.8778 36.457 95.8778 38.0777C95.8778 38.8895 95.7317 39.6724 95.4399 40.4289C95.148 41.1826 94.7232 41.8711 94.1656 42.4946C93.4812 43.2678 92.6738 43.8684 91.74 44.294C90.9533 44.6521 90.1344 44.8585 89.2873 44.9146V44.602C89.7881 44.5602 90.2393 44.4393 90.6373 44.2386C91.1434 43.9822 91.6232 43.5696 92.0804 42.9979C93.0824 41.7281 93.5819 40.1629 93.5819 38.3015C93.5819 37.2785 93.4423 36.3108 93.1667 35.3981C92.891 34.4855 92.5053 33.7126 92.0026 33.0793C91.5972 32.5561 91.1463 32.1761 90.6471 31.9391C90.2522 31.7506 89.7978 31.6358 89.2873 31.5968V31.2966ZM103.17 31.6208V31.8351C102.807 31.8546 102.512 31.9067 102.282 31.9878C102.055 32.0689 101.854 32.2022 101.685 32.3873C101.475 32.6016 101.335 32.8681 101.27 33.1865C101.202 33.5046 101.17 34.0502 101.17 34.8233V40.2114C101.17 41.0883 101.202 41.7216 101.27 42.1113C101.335 42.5013 101.471 42.8617 101.675 43.1896C101.98 43.6931 102.356 44.0567 102.801 44.281C103.208 44.4846 103.712 44.5976 104.312 44.616V44.9286L104.111 44.9304C102.321 44.9304 101.001 44.5538 100.151 43.7971C99.6004 43.3162 99.2728 42.6795 99.1658 41.8938C99.1269 41.6143 99.1072 41.1112 99.1072 40.3802V34.6058C99.1072 33.9496 99.0717 33.4687 99.0036 33.1569C98.9323 32.8486 98.7961 32.5887 98.595 32.3873C98.4233 32.2022 98.2254 32.0689 98.0016 31.9878C97.7745 31.9033 97.4795 31.8546 97.113 31.8351V31.6207L103.17 31.6208ZM105.101 44.5894C105.541 44.5465 105.968 44.4564 106.381 44.3201C106.981 44.1186 107.48 43.8424 107.882 43.485C108.129 43.2644 108.31 43.024 108.427 42.7609C108.547 42.5013 108.625 42.1732 108.66 41.7737C108.686 41.5138 108.699 40.8965 108.699 39.9257V34.6058C108.699 33.953 108.664 33.4687 108.589 33.157C108.518 32.8486 108.382 32.5921 108.184 32.3873C108.009 32.2022 107.808 32.0689 107.581 31.9878C107.357 31.9067 107.062 31.8546 106.702 31.8351V31.6208H111.083V31.8351C110.723 31.8546 110.431 31.9033 110.204 31.9878C109.98 32.0689 109.779 32.2022 109.601 32.3873C109.406 32.5887 109.27 32.8486 109.199 33.1635C109.124 33.4753 109.088 33.9562 109.088 34.6058V40.6108C109.088 41.4975 109.02 42.1537 108.884 42.5758C108.748 42.9979 108.479 43.3813 108.074 43.732C107.335 44.37 106.345 44.7534 105.101 44.8817V44.5894ZM138.474 31.6208L138.591 35.7715L138.377 35.791C137.939 34.3783 137.378 33.326 136.694 32.6377C136.011 31.947 135.185 31.6026 134.218 31.6013V31.2956C134.61 31.3114 134.976 31.3577 135.322 31.4325C135.757 31.5268 136.217 31.6826 136.703 31.8967L137.261 32.1569C137.4 32.2122 137.527 32.2411 137.644 32.2411C137.897 32.2411 138.088 32.0334 138.221 31.6208H138.474ZM133.429 31.6626C133.001 31.7337 132.614 31.8669 132.271 32.0626C131.729 32.3709 131.223 32.8716 130.756 33.563C129.806 34.9789 129.329 36.5965 129.329 38.4187C129.329 39.2893 129.443 40.1108 129.673 40.8805C129.9 41.6534 130.231 42.3322 130.668 42.9234C131.436 43.9561 132.357 44.5223 133.429 44.6221V44.9299C132.355 44.9186 131.384 44.7271 130.516 44.3587C129.618 43.9788 128.892 43.4334 128.334 42.7219C127.915 42.1892 127.595 41.5559 127.371 40.822C127.147 40.0847 127.034 39.3053 127.034 38.4803C127.034 37.3467 127.235 36.2913 127.64 35.3136C128.045 34.3361 128.616 33.5306 129.349 32.897C129.949 32.3841 130.643 31.9878 131.427 31.7085C132.066 31.4809 132.733 31.3464 133.429 31.304V31.6626ZM134.218 44.6089C134.538 44.5657 134.844 44.4741 135.137 44.3329C135.562 44.1315 135.909 43.8523 136.181 43.4982C136.554 43.0045 136.742 42.4167 136.742 41.7379C136.742 41.1112 136.574 40.6596 136.237 40.3802C135.896 40.1008 135.341 39.9613 134.563 39.9613V39.7469H140.614V39.9613C140.059 40.0134 139.667 40.0913 139.443 40.195C139.22 40.2991 139.054 40.4776 138.947 40.7312C138.827 41.0106 138.766 41.5659 138.766 42.3941C138.766 42.6213 138.779 42.9787 138.805 43.4592L138.824 43.6768C138.581 43.5891 138.406 43.5438 138.292 43.5438C138.153 43.5438 137.975 43.6183 137.76 43.7612C137.209 44.1381 136.567 44.4272 135.841 44.6284C135.32 44.7721 134.78 44.8646 134.218 44.9056V44.6089Z" fill="white"/>
<path d="M73.33 21.7515V24.9451C73.33 25.5481 73.3634 25.9994 73.433 26.2904C73.4995 26.5843 73.6265 26.8268 73.8079 27.0175C73.9683 27.1841 74.1529 27.3056 74.3648 27.3872C74.5736 27.4659 74.8488 27.5146 75.1935 27.5328V27.7327H69.5454V27.5328C69.8875 27.5146 70.1627 27.4659 70.3743 27.3872C70.5831 27.3056 70.7677 27.1841 70.928 27.0175C71.1155 26.8268 71.2428 26.5872 71.3093 26.2965C71.3729 26.0055 71.406 25.557 71.406 24.9451V18.3942C71.406 17.8851 71.385 17.4912 71.3395 17.2155C71.294 16.9398 71.2186 16.7158 71.1126 16.5459C70.9614 16.3065 70.7648 16.1309 70.5287 16.0158C70.2929 15.9005 69.9842 15.831 69.6062 15.8068H69.5454V15.6066H74.882C75.8137 15.6066 76.5004 15.6551 76.9421 15.7491C77.3838 15.8431 77.7892 16.034 78.1551 16.3158C78.9933 16.9551 79.4108 17.8096 79.4108 18.8731C79.4108 19.9578 78.984 20.7517 78.1341 21.2546C77.6924 21.5151 77.154 21.6728 76.5217 21.7241C76.319 21.7423 75.835 21.7515 75.0665 21.7515H73.33ZM73.33 21.4787H74.1984C74.7852 21.4787 75.236 21.4363 75.5536 21.3483C75.8681 21.2636 76.1526 21.1061 76.4007 20.8728C76.9784 20.3456 77.2688 19.6426 77.2688 18.7639C77.2688 18.2762 77.1842 17.8307 77.0146 17.4246C76.8485 17.0185 76.6063 16.6854 76.2916 16.4308C75.9317 16.1277 75.5021 15.9521 75.006 15.8976C74.8698 15.8855 74.5614 15.8794 74.0743 15.8794H73.33V21.4787ZM84.5503 21.806V24.948C84.5503 25.5542 84.5837 26.0026 84.6534 26.2933C84.7228 26.5872 84.8469 26.8297 85.0315 27.0175C85.1918 27.1841 85.3793 27.3056 85.5912 27.3872C85.8028 27.4659 86.0781 27.5146 86.4259 27.5328V27.7327H80.7658V27.5328C81.1078 27.5146 81.3831 27.4659 81.5947 27.3872C81.8035 27.3056 81.9881 27.1841 82.1484 27.0175C82.3359 26.8268 82.4632 26.5872 82.5297 26.2965C82.5933 26.0055 82.6264 25.557 82.6264 24.9451V18.3942C82.6264 17.7822 82.5933 17.3338 82.5297 17.0428C82.4632 16.7521 82.3359 16.5127 82.1484 16.3218C81.9881 16.149 81.8035 16.0248 81.5887 15.9492C81.377 15.8734 81.1018 15.8249 80.7658 15.8068V15.6066H85.0404C85.7545 15.6066 86.2235 15.6098 86.4504 15.6158C87.3669 15.6582 88.0838 15.7825 88.6041 15.9884C89.1912 16.2249 89.645 16.5794 89.9654 17.052C90.2891 17.5218 90.4495 18.07 90.4495 18.6912C90.4495 19.6155 90.1016 20.3546 89.4028 20.9121C89.1912 21.0787 88.9551 21.2152 88.698 21.3212C88.4409 21.4274 88.0959 21.5304 87.6663 21.6244C88.0141 21.7726 88.2744 21.9271 88.4409 22.0849C88.577 22.2089 88.698 22.3666 88.81 22.5515C88.9188 22.7393 89.0853 23.0694 89.3061 23.5421C89.8324 24.627 90.2286 25.4207 90.4979 25.9208C90.7673 26.4208 90.9942 26.7841 91.1756 27.0085C91.3239 27.1934 91.4661 27.3205 91.6052 27.3903C91.7443 27.463 91.9349 27.5086 92.177 27.5328V27.7327H89.2517C89.1034 27.4085 89.0095 27.1994 88.9672 27.1115L88.347 25.6995C87.9718 24.8543 87.5969 24.1059 87.2186 23.4573C86.8405 22.8119 86.4927 22.3695 86.178 22.1334C86.0176 22.0151 85.8451 21.9303 85.6638 21.8819C85.4792 21.8303 85.2523 21.806 84.986 21.806H84.5503ZM84.5503 21.6062H84.8892C85.6275 21.6062 86.1567 21.5635 86.4746 21.4819C86.7922 21.3971 87.0916 21.2272 87.37 20.9668C87.996 20.3728 88.3078 19.6365 88.3078 18.761C88.3078 18.2912 88.2168 17.852 88.0354 17.4399C87.8541 17.0278 87.603 16.6883 87.2822 16.4219C87.0312 16.2188 86.7346 16.0793 86.3896 16.0006C86.045 15.9189 85.5518 15.8794 84.9166 15.8794H84.5503V21.6062ZM102.765 15.6066L102.91 18.5427L102.71 18.5519C102.635 18.0519 102.508 17.6397 102.329 17.3127C102.151 16.9883 101.894 16.6976 101.558 16.449C101.279 16.243 100.95 16.0946 100.572 16.0098C100.193 15.9218 99.6883 15.8794 99.062 15.8794H97.029V21.2244H97.5646C98.1062 21.2244 98.5115 21.188 98.7836 21.1182C99.0589 21.0456 99.2797 20.9212 99.4522 20.7364C99.6186 20.5669 99.7427 20.3638 99.8243 20.1305C99.9031 19.8972 99.9696 19.5517 100.024 19.0972L100.224 19.1065L100.187 23.8602H99.9878C99.9333 23.4029 99.8547 23.0363 99.7517 22.7574C99.6489 22.4785 99.5037 22.2424 99.3192 22.0483C99.1407 21.8576 98.9106 21.7181 98.6233 21.6304C98.3391 21.5424 97.976 21.4969 97.5372 21.4969H97.029V23.53C97.029 24.3392 97.0503 24.9298 97.0926 25.2996C97.132 25.6692 97.2135 25.9784 97.3316 26.2267C97.5343 26.6509 97.843 26.9629 98.2573 27.163C98.6716 27.36 99.2193 27.4598 99.8971 27.4598C100.605 27.4598 101.198 27.369 101.676 27.1902C102.154 27.0085 102.541 26.7297 102.843 26.351C103.055 26.0964 103.228 25.8056 103.361 25.4815C103.491 25.1571 103.615 24.7268 103.727 24.1936L103.927 24.2028L103.818 27.7327H93.2355V27.5328C93.5744 27.5146 93.8497 27.4659 94.0584 27.3903C94.2701 27.3145 94.4577 27.1902 94.6242 27.0175C94.8084 26.8268 94.9357 26.5843 95.0022 26.2933C95.0719 25.9994 95.105 25.551 95.105 24.9451V18.3942C95.105 17.7883 95.0719 17.3398 95.0022 17.0459C94.9357 16.752 94.8084 16.5127 94.6242 16.3218C94.4638 16.149 94.2792 16.0248 94.0674 15.9492C93.8586 15.8734 93.5805 15.8249 93.2355 15.8068V15.6066H102.765ZM120.562 15.8068C120.226 15.8249 119.957 15.8702 119.751 15.9431C119.548 16.0187 119.361 16.1399 119.188 16.3126C119.058 16.4369 118.962 16.5762 118.895 16.7278C118.831 16.8793 118.786 17.0702 118.762 17.3006C118.723 17.6095 118.702 17.9731 118.702 18.3942V24.9451C118.702 25.557 118.738 26.0087 118.807 26.3055C118.88 26.6024 119.007 26.8389 119.188 27.0175C119.515 27.3327 119.972 27.5022 120.562 27.5328V27.7327H114.908V27.5328C115.25 27.5146 115.525 27.4659 115.737 27.3872C115.945 27.3056 116.133 27.1841 116.299 27.0175C116.481 26.8268 116.608 26.5843 116.674 26.2933C116.744 25.9994 116.777 25.551 116.777 24.9451V16.9975L112.209 27.7327H112.025L107.484 17.1581V24.9451C107.484 25.557 107.517 26.0055 107.587 26.2965C107.653 26.5872 107.78 26.8268 107.962 27.0175C108.128 27.1902 108.316 27.3145 108.525 27.3903C108.737 27.4659 109.009 27.5146 109.348 27.5328V27.7327H105.26V27.5328C105.596 27.5146 105.868 27.4659 106.08 27.3903C106.289 27.3145 106.477 27.1902 106.643 27.0175C106.824 26.8268 106.952 26.5843 107.018 26.2933C107.088 25.9994 107.121 25.551 107.121 24.9451V18.3942C107.121 18.1216 107.112 17.8641 107.094 17.6187C107.063 17.1824 106.997 16.8611 106.891 16.6612C106.743 16.3824 106.54 16.1764 106.283 16.0429C106.026 15.9097 105.684 15.831 105.26 15.8068V15.6066H109.105L112.941 25.1057L116.92 15.6066H120.562V15.8068ZM127.834 15.6066V15.8068C127.499 15.8249 127.226 15.8734 127.015 15.9492C126.806 16.0248 126.618 16.149 126.452 16.3218C126.222 16.558 126.08 16.8885 126.028 17.3095C125.992 17.6247 125.974 17.9853 125.974 18.3942V24.9451C125.974 25.4388 125.998 25.8267 126.044 26.1116C126.092 26.3934 126.168 26.6238 126.276 26.7934C126.428 27.0327 126.627 27.2083 126.869 27.3237C127.111 27.4388 127.432 27.5086 127.834 27.5328V27.7327H122.189V27.5328C122.531 27.5146 122.807 27.4659 123.018 27.3872C123.227 27.3056 123.412 27.1841 123.572 27.0175C123.759 26.8268 123.887 26.5872 123.953 26.2965C124.017 26.0055 124.05 25.557 124.05 24.9451V18.3942C124.05 17.7822 124.017 17.3338 123.953 17.0428C123.887 16.7521 123.759 16.5127 123.572 16.3218C123.412 16.149 123.227 16.0248 123.012 15.9492C122.801 15.8734 122.525 15.8249 122.189 15.8068V15.6066H127.834ZM138.967 15.6066L139.112 18.5427L138.913 18.5519C138.837 18.0519 138.71 17.6397 138.531 17.3127C138.353 16.9883 138.096 16.6976 137.76 16.449C137.482 16.243 137.152 16.0946 136.774 16.0098C136.395 15.9218 135.89 15.8794 135.264 15.8794H133.231V21.2244H133.767C134.308 21.2244 134.714 21.188 134.986 21.1182C135.261 21.0456 135.482 20.9212 135.654 20.7364C135.821 20.5669 135.945 20.3638 136.026 20.1305C136.105 19.8972 136.172 19.5517 136.226 19.0972L136.426 19.1065L136.389 23.8602H136.19C136.135 23.4029 136.057 23.0363 135.954 22.7574C135.851 22.4785 135.706 22.2424 135.521 22.0483C135.343 21.8576 135.113 21.7181 134.825 21.6304C134.541 21.5424 134.178 21.4969 133.739 21.4969H133.231V23.53C133.231 24.3392 133.252 24.9298 133.295 25.2996C133.334 25.6692 133.416 25.9784 133.534 26.2267C133.736 26.6509 134.045 26.9629 134.459 27.163C134.874 27.36 135.421 27.4598 136.099 27.4598C136.807 27.4598 137.4 27.369 137.878 27.1902C138.356 27.0085 138.743 26.7297 139.046 26.351C139.258 26.0964 139.43 25.8056 139.563 25.4815C139.693 25.1571 139.817 24.7268 139.929 24.1936L140.129 24.2028L140.02 27.7327H129.438V27.5328C129.776 27.5146 130.052 27.4659 130.261 27.3903C130.472 27.3145 130.66 27.1902 130.826 27.0175C131.011 26.8268 131.138 26.5843 131.204 26.2933C131.274 25.9994 131.307 25.551 131.307 24.9451V18.3942C131.307 17.7883 131.274 17.3398 131.204 17.0459C131.138 16.752 131.011 16.5127 130.826 16.3218C130.666 16.149 130.481 16.0248 130.269 15.9492C130.061 15.8734 129.783 15.8249 129.438 15.8068V15.6066H138.967ZM145.265 21.806V24.948C145.265 25.5542 145.299 26.0026 145.368 26.2933C145.438 26.5872 145.562 26.8297 145.746 27.0175C145.907 27.1841 146.094 27.3056 146.306 27.3872C146.518 27.4659 146.793 27.5146 147.141 27.5328V27.7327H141.481V27.5328C141.823 27.5146 142.098 27.4659 142.31 27.3872C142.518 27.3056 142.703 27.1841 142.863 27.0175C143.051 26.8268 143.178 26.5872 143.244 26.2965C143.308 26.0055 143.341 25.557 143.341 24.9451V18.3942C143.341 17.7822 143.308 17.3338 143.244 17.0428C143.178 16.7521 143.051 16.5127 142.863 16.3218C142.703 16.149 142.518 16.0248 142.304 15.9492C142.092 15.8734 141.817 15.8249 141.481 15.8068V15.6066H145.755C146.469 15.6066 146.938 15.6098 147.165 15.6158C148.082 15.6582 148.799 15.7825 149.319 15.9884C149.906 16.2249 150.36 16.5794 150.68 17.052C151.004 17.5218 151.164 18.07 151.164 18.6912C151.164 19.6155 150.816 20.3546 150.118 20.9121C149.906 21.0787 149.67 21.2152 149.413 21.3212C149.156 21.4274 148.811 21.5304 148.381 21.6244C148.729 21.7726 148.989 21.9271 149.156 22.0849C149.292 22.2089 149.413 22.3666 149.525 22.5515C149.634 22.7393 149.8 23.0694 150.021 23.5421C150.547 24.627 150.943 25.4207 151.213 25.9208C151.482 26.4208 151.709 26.7841 151.89 27.0085C152.039 27.1934 152.181 27.3205 152.32 27.3903C152.459 27.463 152.65 27.5086 152.892 27.5328V27.7327H149.967C149.818 27.4085 149.724 27.1994 149.682 27.1115L149.062 25.6995C148.687 24.8543 148.312 24.1059 147.933 23.4573C147.555 22.8119 147.208 22.3695 146.893 22.1334C146.732 22.0151 146.56 21.9303 146.379 21.8819C146.194 21.8303 145.967 21.806 145.701 21.806H145.265ZM145.265 21.6062H145.604C146.342 21.6062 146.872 21.5635 147.189 21.4819C147.507 21.3971 147.806 21.2272 148.085 20.9668C148.711 20.3728 149.023 19.6365 149.023 18.761C149.023 18.2912 148.932 17.852 148.75 17.4399C148.569 17.0278 148.318 16.6883 147.997 16.4219C147.746 16.2188 147.449 16.0793 147.104 16.0006C146.76 15.9189 146.267 15.8794 145.631 15.8794H145.265V21.6062Z" fill="#D7B56E"/>
</svg>
