<svg width="24" height="24" viewBox="0 0 24 24" fill="none" xmlns="http://www.w3.org/2000/svg">
<path d="M22.1801 22.17L23.0901 21.12C24.3001 19.91 24.3001 17.95 23.0901 16.74C23.0601 16.71 20.6501 14.86 20.6501 14.86C19.4501 13.72 17.5601 13.72 16.3701 14.86L14.9101 16.02C11.6001 14.56 9.32006 12.29 7.96006 9.09L9.13006 7.63C10.2801 6.44 10.2801 4.54 9.13006 3.35C9.13006 3.35 7.28006 0.939996 7.25006 0.909996C6.04006 -0.300004 4.08006 -0.300004 2.92006 0.859996L1.77006 1.86C0.620056 3.01 -0.00994492 4.56 -0.00994492 6.24C-0.00994492 13.88 10.1201 24 17.7501 24C19.4201 24 20.9801 23.37 22.1701 22.17H22.1801ZM2.00006 6.24C2.00006 5.1 2.42006 4.05 3.15006 3.33L4.30006 2.33C4.71006 1.92 5.38006 1.9 5.81006 2.29C5.81006 2.29 7.65006 4.68 7.68006 4.71C8.09006 5.12 8.09006 5.84 7.68006 6.26C7.65006 6.29 6.04006 8.3 6.04006 8.3C5.82006 8.58 5.76006 8.95 5.89006 9.28C7.47006 13.42 10.4301 16.39 14.7001 18.1C15.0301 18.23 15.4101 18.18 15.7001 17.95C15.7001 17.95 17.7201 16.34 17.7401 16.32C18.1701 15.89 18.8601 15.89 19.2901 16.32C19.3201 16.35 21.7101 18.19 21.7101 18.19C22.1001 18.62 22.0901 19.29 21.6301 19.75L20.7201 20.8C19.9501 21.57 18.9001 22 17.7601 22C10.8001 22 2.00006 12.23 2.00006 6.24Z" fill="white"/>
</svg>
