<svg width="20" height="20" viewBox="0 0 20 20" fill="none" xmlns="http://www.w3.org/2000/svg">
<path d="M18.4833 18.475L19.2417 17.6C20.25 16.5917 20.25 14.9584 19.2417 13.95C19.2167 13.925 17.2083 12.3834 17.2083 12.3834C16.2083 11.4334 14.6333 11.4334 13.6417 12.3834L12.425 13.35C9.66667 12.1334 7.76667 10.2417 6.63334 7.57503L7.60834 6.35837C8.56667 5.3667 8.56667 3.78337 7.60834 2.7917C7.60834 2.7917 6.06667 0.783367 6.04167 0.758367C5.03334 -0.249966 3.40001 -0.249966 2.43334 0.7167L1.47501 1.55003C0.516674 2.50837 -0.00832748 3.80003 -0.00832748 5.20003C-0.00832748 11.5667 8.43334 20 14.7917 20C16.1833 20 17.4833 19.475 18.475 18.475H18.4833ZM1.66667 5.20003C1.66667 4.25003 2.01667 3.37503 2.62501 2.77503L3.58334 1.9417C3.92501 1.60003 4.48334 1.58337 4.84167 1.90837C4.84167 1.90837 6.37501 3.90003 6.40001 3.92503C6.74167 4.2667 6.74167 4.8667 6.40001 5.2167C6.37501 5.2417 5.03334 6.9167 5.03334 6.9167C4.85001 7.15003 4.80001 7.45837 4.90834 7.73337C6.22501 11.1834 8.69167 13.6584 12.25 15.0834C12.525 15.1917 12.8417 15.15 13.0833 14.9584C13.0833 14.9584 14.7667 13.6167 14.7833 13.6C15.1417 13.2417 15.7167 13.2417 16.075 13.6C16.1 13.625 18.0917 15.1584 18.0917 15.1584C18.4167 15.5167 18.4083 16.075 18.025 16.4584L17.2667 17.3334C16.625 17.975 15.75 18.3334 14.8 18.3334C9.00001 18.3334 1.66667 10.1917 1.66667 5.20003Z" fill="#FD0307"/>
</svg>
