<svg width="24" height="18" viewBox="0 0 24 18" fill="none" xmlns="http://www.w3.org/2000/svg">
<path d="M9.99998 16C9.99998 14.9 10.9 14 12 14C13.1 14 14 14.9 14 16C14 17.1 13.1 18 12 18C10.9 18 9.99998 17.1 9.99998 16ZM23.68 6.54C24.09 6.16 24.11 5.53 23.73 5.13C20.71 1.88 16.43 0.0100021 12 0.0100021C7.56998 0.0100021 3.28998 1.87 0.269978 5.12C-0.110022 5.53 -0.0800225 6.16 0.319978 6.53C0.719977 6.91 1.35998 6.88 1.72998 6.48C4.36998 3.63 8.10998 2 12 2C15.89 2 19.62 3.63 22.27 6.48C22.47 6.69 22.73 6.8 23 6.8C23.24 6.8 23.49 6.71 23.68 6.53V6.54ZM18.67 11.35C19.08 10.97 19.1 10.34 18.72 9.94C16.99 8.07 14.54 7 12 7C9.45998 7 7.00998 8.07 5.27998 9.94C4.89998 10.34 4.92998 10.98 5.32998 11.35C5.72998 11.73 6.36998 11.7 6.73998 11.3C8.08998 9.84 10.01 9.01 12 9.01C13.99 9.01 15.9 9.85 17.26 11.3C17.46 11.51 17.72 11.62 17.99 11.62C18.23 11.62 18.48 11.53 18.67 11.35Z" fill="white"/>
</svg>
